{
  "accessors": [
    {
      "bufferView": 2,
      "componentType": 5126,
      "count": 884,
      "max": [
        19.28584098815918,
        3.843113899230957,
        44.579803466796875
      ],
      "min": [
        -19.28584098815918,
        -3.802067995071411,
        -0.03241899982094765
      ],
      "type": "VEC3"
    },
    {
      "bufferView": 2,
      "byteOffset": 10608,
      "componentType": 5126,
      "count": 884,
      "max": [
        0.9990090727806091,
        0.999951958656311,
        0.9963711500167847
      ],
      "min": [
        -0.9990090727806091,
        -0.9995736479759216,
        -0.9998322129249573
      ],
      "type": "VEC3"
    },
    {
      "bufferView": 1,
      "componentType": 5126,
      "count": 884,
      "max": [
        0.9803990125656128,
        0.9923530220985413
      ],
      "min": [
        0.013841000385582447,
        0.01605300046503544
      ],
      "type": "VEC2"
    },
    {
      "bufferView": 0,
      "componentType": 5125,
      "count": 3852,
      "type": "SCALAR"
    }
  ],
  "asset": {
    "extras": {
      "author": "Jim Wing (https://sketchfab.com/JimWing)",
      "license": "CC-BY-4.0 (http://creativecommons.org/licenses/by/4.0/)",
      "source": "https://sketchfab.com/3d-models/major-sergey-nechaev-p-3-demake-e3c35f9bc4db4841a8199f5642f257d9",
      "title": "Major Sergey Nechaev (P-3) Demake"
    },
    "generator": "Sketchfab-16.95.0",
    "version": "2.0"
  },
  "bufferViews": [
    {
      "buffer": 0,
      "byteLength": 15408,
      "name": "floatBufferViews",
      "target": 34963
    },
    {
      "buffer": 0,
      "byteLength": 7072,
      "byteOffset": 15408,
      "byteStride": 8,
      "name": "floatBufferViews",
      "target": 34962
    },
    {
      "buffer": 0,
      "byteLength": 21216,
      "byteOffset": 22480,
      "byteStride": 12,
      "name": "floatBufferViews",
      "target": 34962
    }
  ],
  "buffers": [
    {
      "byteLength": 43696,
      "uri": "scene.bin"
    }
  ],
  "extensionsUsed": [
    "KHR_materials_unlit"
  ],
  "images": [
    {
      "uri": "textures/nechaev_material_baseColor.png"
    }
  ],
  "materials": [
    {
      "alphaMode": "MASK",
      "alphaCutoff": 0.5,
      "doubleSided": false,
      "extensions": {
        "KHR_materials_unlit": {}
      },
      "name": "nechaev_material",
      "pbrMetallicRoughness": {
        "baseColorTexture": {
          "index": 0
        },
        "metallicFactor": 0.0
      }
    }
  ],
  "meshes": [
    {
      "name": "Object_0",
      "primitives": [
        {
          "attributes": {
            "NORMAL": 1,
            "POSITION": 0,
            "TEXCOORD_0": 2
          },
          "indices": 3,
          "material": 0,
          "mode": 4
        }
      ]
    }
  ],
  "nodes": [
    {
      "children": [
        1
      ],
      "matrix": [
        0.039840638637542725,
        0.0,
        0.0,
        0.0,
        0.0,
        8.846398866234112e-18,
        -0.039840638637542725,
        0.0,
        0.0,
        0.039840638637542725,
        8.846398866234112e-18,
        0.0,
        0.0,
        0.0,
        0.0,
        1.0
      ],
      "name": "Sketchfab_model"
    },
    {
      "children": [
        2
      ],
      "name": "08483f0605214d84b750fcca2437b7ed.obj.cleaner.materialmerger.gles"
    },
    {
      "mesh": 0,
      "name": "Object_2"
    }
  ],
  "samplers": [
    {
      "magFilter": 9728,
      "minFilter": 9986,
      "wrapS": 10497,
      "wrapT": 10497
    }
  ],
  "scene": 0,
  "scenes": [
    {
      "name": "Sketchfab_Scene",
      "nodes": [
        0
      ]
    }
  ],
  "textures": [
    {
      "sampler": 0,
      "source": 0
    }
  ]
}
